<?xml version="1.0" encoding="utf-8"?>
<!-- Generator: Adobe Illustrator 22.0.0, SVG Export Plug-In . SVG Version: 6.00 Build 0)  -->
<svg version="1.1" id="Layer_1" xmlns="http://www.w3.org/2000/svg" xmlns:xlink="http://www.w3.org/1999/xlink" x="0px" y="0px"
	 viewBox="0 0 500 500" style="enable-background:new 0 0 500 500;" xml:space="preserve">
<style type="text/css">
	.st0{fill:none;stroke:#1C1D21;stroke-width:10;stroke-linecap:round;stroke-linejoin:round;stroke-miterlimit:10;}
	.st1{fill:#1C1D21;}
</style>
<circle class="st0" cx="79.9" cy="79.4" r="74.4"/>
<circle class="st0" cx="79.9" cy="267.3" r="50.1"/>
<circle class="st0" cx="204.3" cy="381.6" r="50.1"/>
<circle class="st0" cx="204.3" cy="216" r="34"/>
<line class="st0" x1="79.9" y1="153.8" x2="79.9" y2="217.1"/>
<line class="st0" x1="120" y1="297.3" x2="168.8" y2="346.1"/>
<circle class="st0" cx="267.7" cy="83.7" r="50.1"/>
<circle class="st0" cx="382.1" cy="208.1" r="50.1"/>
<line class="st0" x1="154.3" y1="83.7" x2="217.6" y2="83.7"/>
<line class="st0" x1="297.8" y1="123.8" x2="346.6" y2="172.7"/>
<line class="st0" x1="304.7" y1="484.9" x2="314.8" y2="495"/>
<line class="st0" x1="238.2" y1="418.5" x2="278.9" y2="459.1"/>
<line class="st0" x1="484.4" y1="310" x2="494.5" y2="320.1"/>
<line class="st0" x1="418" y1="243.5" x2="458.6" y2="284.2"/>
<line class="st0" x1="204.3" y1="331.5" x2="204.3" y2="250"/>
<circle class="st0" cx="382.1" cy="373.7" r="34"/>
<line class="st0" x1="382.1" y1="258.3" x2="382.1" y2="339.7"/>
</svg>
